<?xml version="1.0" encoding="UTF-8"?>
<svg id="Layer_1" data-name="Layer 1" xmlns="http://www.w3.org/2000/svg" viewBox="0 0 200 200">
  <defs>
    <style>
      .cls-1 {
        fill: #fff;
      }

      .cls-2 {
        fill: #f90;
        fill-rule: evenodd;
      }
    </style>
  </defs>
  <g id="aws">
    <g id="aws_2" data-name="aws 2">
      <path id="Vector" class="cls-1" d="M62.56,85.96c0,2.11,.23,3.82,.63,5.08,.46,1.26,1.03,2.62,1.83,4.11,.29,.46,.4,.91,.4,1.31,0,.57-.34,1.14-1.08,1.71l-3.59,2.4c-.51,.34-1.03,.51-1.48,.51-.57,0-1.14-.29-1.71-.8-.8-.86-1.48-1.77-2.05-2.68-.57-.97-1.14-2.05-1.77-3.37-4.45,5.25-10.04,7.87-16.78,7.87-4.79,0-8.62-1.37-11.41-4.11-2.8-2.74-4.22-6.39-4.22-10.96,0-4.85,1.71-8.79,5.19-11.76,3.48-2.97,8.1-4.45,13.98-4.45,1.94,0,3.94,.17,6.05,.46,2.11,.29,4.28,.74,6.56,1.26v-4.17c0-4.34-.91-7.36-2.68-9.13-1.83-1.77-4.91-2.62-9.3-2.62-2,0-4.05,.23-6.16,.74-2.11,.51-4.17,1.14-6.16,1.94-.91,.4-1.6,.63-2,.74-.4,.11-.68,.17-.91,.17-.8,0-1.2-.57-1.2-1.77v-2.8c0-.91,.11-1.6,.4-2,.29-.4,.8-.8,1.6-1.2,2-1.03,4.39-1.88,7.19-2.57,2.8-.74,5.76-1.08,8.9-1.08,6.79,0,11.76,1.54,14.95,4.62,3.14,3.08,4.74,7.76,4.74,14.04v18.49h.11Zm-23.17,8.67c1.88,0,3.82-.34,5.88-1.03,2.05-.68,3.88-1.94,5.42-3.65,.91-1.08,1.6-2.28,1.94-3.65,.34-1.37,.57-3.02,.57-4.96v-2.4c-1.65-.4-3.42-.74-5.25-.97-1.83-.23-3.6-.34-5.36-.34-3.82,0-6.62,.74-8.5,2.28-1.88,1.54-2.8,3.71-2.8,6.56,0,2.68,.68,4.68,2.11,6.05,1.37,1.43,3.37,2.11,5.99,2.11Zm45.82,6.16c-1.03,0-1.71-.17-2.17-.57-.46-.34-.86-1.14-1.2-2.23l-13.41-44.11c-.34-1.14-.51-1.88-.51-2.28,0-.91,.46-1.43,1.37-1.43h5.59c1.08,0,1.83,.17,2.23,.57,.46,.34,.8,1.14,1.14,2.23l9.59,37.78,8.9-37.78c.29-1.14,.63-1.88,1.08-2.23,.46-.34,1.26-.57,2.28-.57h4.57c1.08,0,1.83,.17,2.28,.57,.46,.34,.86,1.14,1.08,2.23l9.02,38.23,9.87-38.23c.34-1.14,.74-1.88,1.14-2.23,.46-.34,1.2-.57,2.23-.57h5.31c.91,0,1.43,.46,1.43,1.43,0,.29-.06,.57-.11,.91-.06,.34-.17,.8-.4,1.43l-13.75,44.11c-.34,1.14-.74,1.88-1.2,2.23-.46,.34-1.2,.57-2.17,.57h-4.91c-1.08,0-1.83-.17-2.28-.57-.46-.4-.86-1.14-1.08-2.28l-8.84-36.81-8.79,36.75c-.29,1.14-.63,1.88-1.08,2.28-.46,.4-1.26,.57-2.28,.57h-4.91Zm73.33,1.54c-2.97,0-5.93-.34-8.79-1.03-2.85-.68-5.08-1.43-6.56-2.28-.91-.51-1.54-1.08-1.77-1.6-.23-.51-.34-1.08-.34-1.6v-2.91c0-1.2,.46-1.77,1.31-1.77,.34,0,.68,.06,1.03,.17,.34,.11,.86,.34,1.43,.57,1.94,.86,4.05,1.54,6.28,2,2.28,.46,4.51,.68,6.79,.68,3.59,0,6.39-.63,8.33-1.88s2.97-3.08,2.97-5.42c0-1.6-.51-2.91-1.54-3.99-1.03-1.08-2.97-2.05-5.76-2.97l-8.27-2.57c-4.17-1.31-7.25-3.25-9.13-5.82-1.88-2.51-2.85-5.31-2.85-8.27,0-2.4,.51-4.51,1.54-6.33,1.03-1.83,2.4-3.42,4.11-4.68,1.71-1.31,3.65-2.28,5.93-2.97,2.28-.68,4.68-.97,7.19-.97,1.26,0,2.57,.06,3.82,.23,1.31,.17,2.51,.4,3.71,.63,1.14,.29,2.23,.57,3.25,.91,1.03,.34,1.83,.68,2.4,1.03,.8,.46,1.37,.91,1.71,1.43,.34,.46,.51,1.08,.51,1.88v2.68c0,1.2-.46,1.83-1.31,1.83-.46,0-1.2-.23-2.17-.68-3.25-1.48-6.9-2.23-10.96-2.23-3.25,0-5.82,.51-7.59,1.6-1.77,1.08-2.68,2.74-2.68,5.08,0,1.6,.57,2.97,1.71,4.05,1.14,1.08,3.25,2.17,6.28,3.14l8.1,2.57c4.11,1.31,7.08,3.14,8.84,5.48,1.77,2.34,2.63,5.02,2.63,7.99,0,2.45-.51,4.68-1.48,6.62-1.03,1.94-2.4,3.65-4.17,5.02-1.77,1.43-3.88,2.45-6.33,3.2-2.57,.8-5.25,1.2-8.16,1.2Z"/>
      <path id="Vector_2" data-name="Vector 2" class="cls-2" d="M169.33,130.07c-18.77,13.87-46.05,21.23-69.5,21.23-32.87,0-62.48-12.15-84.85-32.36-1.77-1.6-.17-3.77,1.94-2.51,24.2,14.04,54.04,22.54,84.91,22.54,20.83,0,43.71-4.34,64.77-13.24,3.14-1.43,5.82,2.05,2.74,4.34Z"/>
      <path id="Vector_3" data-name="Vector 3" class="cls-2" d="M177.15,121.17c-2.4-3.08-15.86-1.48-21.97-.74-1.83,.23-2.11-1.37-.46-2.57,10.73-7.53,28.36-5.36,30.41-2.85,2.05,2.57-.57,20.2-10.61,28.65-1.54,1.31-3.02,.63-2.34-1.08,2.28-5.65,7.36-18.37,4.96-21.4Z"/>
    </g>
  </g>
</svg>