<?xml version="1.0" encoding="UTF-8"?>
<svg id="Layer_1" data-name="Layer 1" xmlns="http://www.w3.org/2000/svg" viewBox="0 0 200 200">
  <defs>
    <style>
      .cls-1 {
        fill: #252f3e;
      }

      .cls-2 {
        fill: #f90;
        fill-rule: evenodd;
      }
    </style>
  </defs>
  <g id="aws">
    <g id="aws_2" data-name="aws 2">
      <path id="Vector" class="cls-1" d="M61.25,85.47c0,2.19,.24,3.96,.65,5.26,.47,1.3,1.06,2.72,1.89,4.25,.3,.47,.41,.95,.41,1.36,0,.59-.35,1.18-1.12,1.77l-3.72,2.48c-.53,.35-1.06,.53-1.54,.53-.59,0-1.18-.3-1.77-.83-.83-.89-1.54-1.83-2.13-2.78-.59-1-1.18-2.13-1.83-3.49-4.61,5.43-10.4,8.15-17.37,8.15-4.96,0-8.92-1.42-11.81-4.25-2.89-2.84-4.37-6.62-4.37-11.34,0-5.02,1.77-9.1,5.38-12.17,3.6-3.07,8.39-4.61,14.47-4.61,2.01,0,4.08,.18,6.26,.47,2.19,.3,4.43,.77,6.79,1.3v-4.31c0-4.49-.95-7.62-2.78-9.45-1.89-1.83-5.08-2.72-9.63-2.72-2.07,0-4.19,.24-6.38,.77-2.19,.53-4.31,1.18-6.38,2.01-.95,.41-1.65,.65-2.07,.77-.41,.12-.71,.18-.95,.18-.83,0-1.24-.59-1.24-1.83v-2.89c0-.95,.12-1.65,.41-2.07,.3-.41,.83-.83,1.65-1.24,2.07-1.06,4.55-1.95,7.44-2.66,2.89-.77,5.97-1.12,9.22-1.12,7.03,0,12.17,1.59,15.48,4.78,3.25,3.19,4.9,8.03,4.9,14.53v19.14h.12Zm-23.98,8.98c1.95,0,3.96-.35,6.08-1.06,2.13-.71,4.02-2.01,5.61-3.78,.95-1.12,1.65-2.36,2.01-3.78,.35-1.42,.59-3.13,.59-5.14v-2.48c-1.71-.41-3.54-.77-5.43-1-1.89-.24-3.72-.35-5.55-.35-3.96,0-6.85,.77-8.8,2.36-1.95,1.59-2.89,3.84-2.89,6.79,0,2.78,.71,4.84,2.19,6.26,1.42,1.48,3.49,2.19,6.2,2.19Zm47.44,6.38c-1.06,0-1.77-.18-2.24-.59-.47-.35-.89-1.18-1.24-2.3l-13.88-45.66c-.35-1.18-.53-1.95-.53-2.36,0-.95,.47-1.48,1.42-1.48h5.79c1.12,0,1.89,.18,2.3,.59,.47,.35,.83,1.18,1.18,2.3l9.92,39.11,9.22-39.11c.3-1.18,.65-1.95,1.12-2.3,.47-.35,1.3-.59,2.36-.59h4.73c1.12,0,1.89,.18,2.36,.59,.47,.35,.89,1.18,1.12,2.3l9.33,39.58,10.22-39.58c.35-1.18,.77-1.95,1.18-2.3,.47-.35,1.24-.59,2.3-.59h5.49c.95,0,1.48,.47,1.48,1.48,0,.3-.06,.59-.12,.95-.06,.35-.18,.83-.41,1.48l-14.24,45.66c-.35,1.18-.77,1.95-1.24,2.3-.47,.35-1.24,.59-2.24,.59h-5.08c-1.12,0-1.89-.18-2.36-.59-.47-.41-.89-1.18-1.12-2.36l-9.16-38.1-9.1,38.04c-.3,1.18-.65,1.95-1.12,2.36-.47,.41-1.3,.59-2.36,.59h-5.08Zm75.91,1.59c-3.07,0-6.14-.35-9.1-1.06-2.95-.71-5.26-1.48-6.79-2.36-.95-.53-1.59-1.12-1.83-1.65-.24-.53-.35-1.12-.35-1.65v-3.01c0-1.24,.47-1.83,1.36-1.83,.35,0,.71,.06,1.06,.18,.35,.12,.89,.35,1.48,.59,2.01,.89,4.19,1.59,6.5,2.07,2.36,.47,4.67,.71,7.03,.71,3.72,0,6.62-.65,8.62-1.95s3.07-3.19,3.07-5.61c0-1.65-.53-3.01-1.59-4.14-1.06-1.12-3.07-2.13-5.97-3.07l-8.57-2.66c-4.31-1.36-7.5-3.37-9.45-6.03-1.95-2.6-2.95-5.49-2.95-8.57,0-2.48,.53-4.67,1.59-6.56,1.06-1.89,2.48-3.54,4.25-4.84,1.77-1.36,3.78-2.36,6.14-3.07,2.36-.71,4.84-1,7.44-1,1.3,0,2.66,.06,3.96,.24,1.36,.18,2.6,.41,3.84,.65,1.18,.3,2.3,.59,3.37,.95,1.06,.35,1.89,.71,2.48,1.06,.83,.47,1.42,.95,1.77,1.48,.35,.47,.53,1.12,.53,1.95v2.78c0,1.24-.47,1.89-1.36,1.89-.47,0-1.24-.24-2.24-.71-3.37-1.54-7.15-2.3-11.34-2.3-3.37,0-6.03,.53-7.86,1.65-1.83,1.12-2.78,2.84-2.78,5.26,0,1.65,.59,3.07,1.77,4.19,1.18,1.12,3.37,2.24,6.5,3.25l8.39,2.66c4.25,1.36,7.32,3.25,9.16,5.67,1.83,2.42,2.72,5.2,2.72,8.27,0,2.54-.53,4.84-1.54,6.85-1.06,2.01-2.48,3.78-4.31,5.2-1.83,1.48-4.02,2.54-6.56,3.31-2.66,.83-5.43,1.24-8.45,1.24Z"/>
      <path id="Vector_2" data-name="Vector 2" class="cls-2" d="M171.77,131.13c-19.43,14.35-47.67,21.98-71.95,21.98-34.03,0-64.68-12.58-87.84-33.49-1.83-1.65-.18-3.9,2.01-2.6,25.05,14.53,55.94,23.33,87.9,23.33,21.56,0,45.25-4.49,67.05-13.7,3.25-1.48,6.03,2.13,2.84,4.49Z"/>
      <path id="Vector_3" data-name="Vector 3" class="cls-2" d="M179.86,121.92c-2.48-3.19-16.42-1.54-22.74-.77-1.89,.24-2.19-1.42-.47-2.66,11.11-7.8,29.36-5.55,31.49-2.95,2.13,2.66-.59,20.91-10.99,29.65-1.59,1.36-3.13,.65-2.42-1.12,2.36-5.85,7.62-19.02,5.14-22.15Z"/>
    </g>
  </g>
</svg>