<?xml version="1.0" encoding="UTF-8"?>
<svg id="Layer_1" data-name="Layer 1" xmlns="http://www.w3.org/2000/svg" viewBox="0 0 200 200">
  <defs>
    <style>
      .cls-1 {
        fill: #ff2d20;
      }
    </style>
  </defs>
  <g id="laravel">
    <g id="laravel_2" data-name="laravel 2">
      <path id="Vector" class="cls-1" d="M177.05,56.52c.06,.21,.09,.43,.09,.65v34.09c0,.44-.12,.87-.33,1.25-.22,.38-.53,.69-.91,.91l-28.61,16.47v32.65c0,.89-.47,1.71-1.24,2.16l-59.72,34.38c-.14,.08-.29,.13-.43,.18-.06,.02-.11,.05-.17,.07-.42,.11-.86,.11-1.27,0-.07-.02-.13-.06-.2-.08-.14-.05-.28-.09-.41-.17l-59.71-34.38c-.38-.22-.69-.53-.91-.91-.22-.38-.33-.81-.34-1.25V40.27c0-.22,.03-.44,.09-.65,.02-.07,.06-.14,.09-.21,.05-.13,.09-.26,.16-.39,.05-.08,.11-.15,.17-.22,.07-.1,.14-.2,.22-.29,.07-.07,.16-.12,.25-.19,.09-.07,.17-.16,.27-.21h0l29.86-17.19c.38-.22,.81-.33,1.24-.33s.86,.11,1.24,.33l29.86,17.19h0c.1,.06,.18,.14,.27,.21,.08,.06,.17,.12,.24,.19,.09,.09,.15,.19,.22,.29,.05,.07,.12,.14,.17,.22,.07,.12,.11,.25,.16,.39,.02,.07,.07,.14,.09,.21,.06,.21,.09,.43,.09,.65v63.87l24.88-14.33V57.17c0-.22,.03-.44,.09-.65,.02-.07,.06-.14,.09-.21,.05-.13,.09-.26,.16-.39,.05-.08,.11-.15,.17-.22,.07-.1,.14-.2,.22-.29,.07-.07,.16-.12,.24-.19,.09-.07,.17-.16,.27-.21h0l29.86-17.19c.38-.22,.81-.33,1.24-.33s.86,.11,1.24,.33l29.86,17.19c.11,.06,.19,.14,.28,.21,.08,.06,.17,.12,.24,.19,.09,.09,.15,.19,.22,.29,.06,.07,.12,.14,.17,.22,.07,.12,.11,.25,.16,.39,.03,.07,.07,.14,.09,.21Zm-4.89,33.3v-28.35l-10.45,6.01-14.43,8.31v28.35l24.89-14.33h0Zm-29.86,51.28v-28.37l-14.2,8.11-40.54,23.14v28.63l54.74-31.52ZM27.84,44.58v96.52l54.74,31.51v-28.63l-28.59-16.18h0s-.01-.01-.01-.01c-.1-.06-.18-.14-.27-.21-.08-.06-.17-.11-.24-.18h0c-.08-.09-.14-.18-.2-.27-.06-.08-.14-.16-.19-.24h0c-.06-.1-.09-.21-.13-.32-.04-.09-.09-.18-.12-.28h0c-.03-.12-.04-.25-.05-.37-.01-.09-.04-.19-.04-.28V58.9l-14.43-8.31-10.45-6.01h0Zm27.37-18.63l-24.88,14.32,24.87,14.32,24.87-14.32-24.87-14.32h0Zm12.94,89.36l14.43-8.31V44.58l-10.45,6.01-14.43,8.31v62.43l10.45-6.02ZM144.79,42.85l-24.87,14.32,24.87,14.32,24.87-14.32-24.87-14.32Zm-2.49,32.95l-14.43-8.31-10.45-6.01v28.35l14.43,8.31,10.45,6.02v-28.35Zm-57.23,63.88l36.48-20.83,18.24-10.41-24.85-14.31-28.62,16.48-26.08,15.02,24.83,14.06Z"/>
    </g>
  </g>
</svg>