<?xml version="1.0" encoding="UTF-8"?>
<svg id="Layer_1" data-name="Layer 1" xmlns="http://www.w3.org/2000/svg" viewBox="0 0 200 200">
  <defs>
    <style>
      .cls-1 {
        fill: #61dafb;
      }

      .cls-2 {
        fill: none;
        stroke: #61dafb;
        stroke-width: 5px;
      }
    </style>
  </defs>
  <g id="reactjs">
    <g id="reactjs_2" data-name="reactjs 2">
      <path id="Vector" class="cls-1" d="M96.43,115.32c8.46,0,15.32-6.86,15.32-15.32s-6.86-15.32-15.32-15.32-15.32,6.86-15.32,15.32,6.86,15.32,15.32,15.32Z"/>
      <path id="Vector_2" data-name="Vector 2" class="cls-2" d="M96.43,131.39c45.4,0,82.2-14.05,82.2-31.39s-36.8-31.39-82.2-31.39S14.23,82.67,14.23,100s36.8,31.39,82.2,31.39Z"/>
      <path id="Vector_3" data-name="Vector 3" class="cls-2" d="M69.25,115.69c22.7,39.32,53.27,64.16,68.28,55.5,15.01-8.67,8.78-47.57-13.92-86.88C100.92,44.99,70.34,20.14,55.33,28.81c-15.01,8.67-8.78,47.57,13.92,86.88Z"/>
      <path id="Vector_4" data-name="Vector 4" class="cls-2" d="M69.25,84.31c-22.7,39.32-28.93,78.22-13.92,86.88,15.01,8.67,45.58-16.18,68.28-55.5,22.7-39.32,28.93-78.22,13.92-86.88-15.01-8.67-45.58,16.18-68.28,55.5Z"/>
    </g>
  </g>
</svg>